# Exported from ProBuilder
# http://www.procore3d.com/probuilder
# 08/07/2018 12:34:22

mtllib ./EnemyAgent.mtl
o EnemyAgent

g EnemyBody
v 0 -1.125 0.5 1 1 1
v 0.5 0.875 0.5 1 1 1
v -0.5 0.875 0.5 1 1 1
v 0 -1.125 0.5 1 1 1
v 0 -1.125 -0.5 1 1 1
v -0.5 0.875 0.5 1 1 1
v -0.5 0.875 -0.5 1 1 1
v 0 -1.125 -0.5 1 1 1
v -0.5 0.875 -0.5 1 1 1
v 0.5 0.875 -0.5 1 1 1
v 0 -1.125 -0.5 1 1 1
v 0 -1.125 0.5 1 1 1
v 0.5 0.875 -0.5 1 1 1
v 0.5 0.875 0.5 1 1 1
v 0.25 1.125 0.25 1 1 1
v -0.25 1.125 0.25 1 1 1
v 0.25 1.125 -0.25 1 1 1
v -0.25 1.125 -0.25 1 1 1
v 0.5 0.875 0.5 1 1 1
v -0.5 0.875 0.5 1 1 1
v 0.5 1.125 0.5 1 1 1
v -0.5 1.125 0.5 1 1 1
v 0.5 0.875 -0.5 1 1 1
v 0.5 0.875 0.5 1 1 1
v 0.5 1.125 -0.5 1 1 1
v 0.5 1.125 0.5 1 1 1
v -0.5 0.875 0.5 1 1 1
v -0.5 0.875 -0.5 1 1 1
v -0.5 1.125 0.5 1 1 1
v -0.5 1.125 -0.5 1 1 1
v -0.5 0.875 -0.5 1 1 1
v 0.5 0.875 -0.5 1 1 1
v -0.5 1.125 -0.5 1 1 1
v 0.5 1.125 -0.5 1 1 1
v 0.5 1.125 0.5 1 1 1
v -0.5 1.125 0.5 1 1 1
v 0.375 1.125 0.375 1 1 1
v -0.375 1.125 0.375 1 1 1
v 0.5 1.125 -0.5 1 1 1
v 0.5 1.125 0.5 1 1 1
v 0.375 1.125 -0.375 1 1 1
v 0.375 1.125 0.375 1 1 1
v -0.5 1.125 0.5 1 1 1
v -0.5 1.125 -0.5 1 1 1
v -0.375 1.125 0.375 1 1 1
v -0.375 1.125 -0.375 1 1 1
v -0.5 1.125 -0.5 1 1 1
v 0.5 1.125 -0.5 1 1 1
v -0.375 1.125 -0.375 1 1 1
v 0.375 1.125 -0.375 1 1 1
v 0.375 1.125 0.375 1 1 1
v -0.375 1.125 0.375 1 1 1
v 0.375 1.0625 0.375 1 1 1
v -0.375 1.0625 0.375 1 1 1
v 0.375 1.125 -0.375 1 1 1
v 0.375 1.125 0.375 1 1 1
v 0.375 1.0625 -0.375 1 1 1
v 0.375 1.0625 0.375 1 1 1
v -0.375 1.125 0.375 1 1 1
v -0.375 1.125 -0.375 1 1 1
v -0.375 1.0625 0.375 1 1 1
v -0.375 1.0625 -0.375 1 1 1
v -0.375 1.125 -0.375 1 1 1
v 0.375 1.125 -0.375 1 1 1
v -0.375 1.0625 -0.375 1 1 1
v 0.375 1.0625 -0.375 1 1 1
v 0.375 1.0625 0.375 1 1 1
v -0.375 1.0625 0.375 1 1 1
v 0.25 1.0625 0.25 1 1 1
v -0.25 1.0625 0.25 1 1 1
v 0.375 1.0625 -0.375 1 1 1
v 0.375 1.0625 0.375 1 1 1
v 0.25 1.0625 -0.25 1 1 1
v 0.25 1.0625 0.25 1 1 1
v -0.375 1.0625 0.375 1 1 1
v -0.375 1.0625 -0.375 1 1 1
v -0.25 1.0625 0.25 1 1 1
v -0.25 1.0625 -0.25 1 1 1
v -0.375 1.0625 -0.375 1 1 1
v 0.375 1.0625 -0.375 1 1 1
v -0.25 1.0625 -0.25 1 1 1
v 0.25 1.0625 -0.25 1 1 1
v 0.25 1.0625 0.25 1 1 1
v -0.25 1.0625 0.25 1 1 1
v 0.25 1.125 0.25 1 1 1
v -0.25 1.125 0.25 1 1 1
v 0.25 1.0625 -0.25 1 1 1
v 0.25 1.0625 0.25 1 1 1
v 0.25 1.125 -0.25 1 1 1
v 0.25 1.125 0.25 1 1 1
v -0.25 1.0625 0.25 1 1 1
v -0.25 1.0625 -0.25 1 1 1
v -0.25 1.125 0.25 1 1 1
v -0.25 1.125 -0.25 1 1 1
v -0.25 1.0625 -0.25 1 1 1
v 0.25 1.0625 -0.25 1 1 1
v -0.25 1.125 -0.25 1 1 1
v 0.25 1.125 -0.25 1 1 1

vn 0 0 1
vn 0 0 1
vn 0 0 1
vn -0.9701425 -0.2425356 0
vn -0.9701425 -0.2425356 0
vn -0.9701425 -0.2425356 0
vn -0.9701425 -0.2425356 0
vn 0 0 -1
vn 0 0 -1
vn 0 0 -1
vn 0.9701425 -0.2425356 0
vn 0.9701425 -0.2425356 0
vn 0.9701425 -0.2425356 0
vn 0.9701425 -0.2425356 0
vn 0 1 0
vn 0 1 0
vn 0 1 0
vn 0 1 0
vn 0 0 1
vn 0 0 1
vn 0 0 1
vn 0 0 1
vn 1 0 0
vn 1 0 0
vn 1 0 0
vn 1 0 0
vn -1 0 0
vn -1 0 0
vn -1 0 0
vn -1 0 0
vn 0 0 -1
vn 0 0 -1
vn 0 0 -1
vn 0 0 -1
vn 0 1 0
vn 0 1 0
vn 0 1 0
vn 0 1 0
vn 0 1 0
vn 0 1 0
vn 0 1 0
vn 0 1 0
vn 0 1 0
vn 0 1 0
vn 0 1 0
vn 0 1 0
vn 0 1 0
vn 0 1 0
vn 0 1 0
vn 0 1 0
vn 0 0 -1
vn 0 0 -1
vn 0 0 -1
vn 0 0 -1
vn -1 0 0
vn -1 0 0
vn -1 0 0
vn -1 0 0
vn 1 0 0
vn 1 0 0
vn 1 0 0
vn 1 0 0
vn 0 0 1
vn 0 0 1
vn 0 0 1
vn 0 0 1
vn 0 1 0
vn 0 1 0
vn 0 1 0
vn 0 1 0
vn 0 1 0
vn 0 1 0
vn 0 1 0
vn 0 1 0
vn 0 1 0
vn 0 1 0
vn 0 1 0
vn 0 1 0
vn 0 1 0
vn 0 1 0
vn 0 1 0
vn 0 1 0
vn 0 0 1
vn 0 0 1
vn 0 0 1
vn 0 0 1
vn 1 0 0
vn 1 0 0
vn 1 0 0
vn 1 0 0
vn -1 0 0
vn -1 0 0
vn -1 0 0
vn -1 0 0
vn 0 0 -1
vn 0 0 -1
vn 0 0 -1
vn 0 0 -1

vt 0 -1
vt 0.5 1
vt -0.5 1
vt 0 -1
vt -0.5 -1
vt 0.5 1
vt -0.5 1
vt -0.5 -1
vt 0.5 1
vt -0.5 1
vt -0.5 -1
vt 0 -1
vt 0.5 1
vt -0.5 1
vt -0.5 0.5
vt 0.5 0.5
vt -0.5 -0.5
vt 0.5 -0.5
vt 0.5 0.875
vt -0.5 0.875
vt 0.5 1.125
vt -0.5 1.125
vt 0.5 0.875
vt -0.5 0.875
vt 0.5 1.125
vt -0.5 1.125
vt 0.5 0.875
vt -0.5 0.875
vt 0.5 1.125
vt -0.5 1.125
vt 0.5 0.875
vt -0.5 0.875
vt 0.5 1.125
vt -0.5 1.125
vt -0.5 0.5
vt 0.5 0.5
vt -0.375 0.375
vt 0.375 0.375
vt -0.5 -0.5
vt -0.5 0.5
vt -0.375 -0.375
vt -0.375 0.375
vt 0.5 0.5
vt 0.5 -0.5
vt 0.375 0.375
vt 0.375 -0.375
vt 0.5 -0.5
vt -0.5 -0.5
vt 0.375 -0.375
vt -0.375 -0.375
vt -0.375 1.125
vt 0.375 1.125
vt -0.375 1.0625
vt 0.375 1.0625
vt -0.375 1.125
vt 0.375 1.125
vt -0.375 1.0625
vt 0.375 1.0625
vt -0.375 1.125
vt 0.375 1.125
vt -0.375 1.0625
vt 0.375 1.0625
vt -0.375 1.125
vt 0.375 1.125
vt -0.375 1.0625
vt 0.375 1.0625
vt -0.375 0.375
vt 0.375 0.375
vt -0.25 0.25
vt 0.25 0.25
vt -0.375 -0.375
vt -0.375 0.375
vt -0.25 -0.25
vt -0.25 0.25
vt 0.375 0.375
vt 0.375 -0.375
vt 0.25 0.25
vt 0.25 -0.25
vt 0.375 -0.375
vt -0.375 -0.375
vt 0.25 -0.25
vt -0.25 -0.25
vt 0.25 1.0625
vt -0.25 1.0625
vt 0.25 1.125
vt -0.25 1.125
vt 0.25 1.0625
vt -0.25 1.0625
vt 0.25 1.125
vt -0.25 1.125
vt 0.25 1.0625
vt -0.25 1.0625
vt 0.25 1.125
vt -0.25 1.125
vt 0.25 1.0625
vt -0.25 1.0625
vt 0.25 1.125
vt -0.25 1.125

g EnemyBody_0
usemtl OrangeMat
f 6/6/6 7/7/7 5/5/5 4/4/4
f 13/13/13 14/14/14 12/12/12 11/11/11
f 17/17/17 18/18/18 16/16/16 15/15/15
f 37/37/37 38/38/38 36/36/36 35/35/35
f 41/41/41 42/42/42 40/40/40 39/39/39
f 45/45/45 46/46/46 44/44/44 43/43/43
f 49/49/49 50/50/50 48/48/48 47/47/47
f 53/53/53 54/54/54 52/52/52 51/51/51
f 57/57/57 58/58/58 56/56/56 55/55/55
f 61/61/61 62/62/62 60/60/60 59/59/59
f 65/65/65 66/66/66 64/64/64 63/63/63
f 85/85/85 86/86/86 84/84/84 83/83/83
f 89/89/89 90/90/90 88/88/88 87/87/87
f 93/93/93 94/94/94 92/92/92 91/91/91
f 97/97/97 98/98/98 96/96/96 95/95/95

g EnemyBody_1
usemtl BlueMat
f 21/21/21 22/22/22 20/20/20 19/19/19
f 25/25/25 26/26/26 24/24/24 23/23/23
f 29/29/29 30/30/30 28/28/28 27/27/27
f 33/33/33 34/34/34 32/32/32 31/31/31

g EnemyBody_2
usemtl OrangeDarkMat
f 69/69/69 70/70/70 68/68/68 67/67/67
f 73/73/73 74/74/74 72/72/72 71/71/71
f 77/77/77 78/78/78 76/76/76 75/75/75
f 81/81/81 82/82/82 80/80/80 79/79/79

g EnemyBody_3
usemtl OrangeMat
f 2/2/2 3/3/3 1/1/1
f 9/9/9 10/10/10 8/8/8

